Coordinates
version=1
nRows=4
nColumns=55
inDegrees=yes

Units are S.I. units (second, meters, Newtons, ...)
If the header above contains a line with 'inDegrees', this indicates whether rotational values are in degrees (yes) or radians (no).

endheader
time	pelvis_tilt	pelvis_list	pelvis_rotation	pelvis_tx	pelvis_ty	pelvis_tz	hip_flexion_r	hip_adduction_r	hip_rotation_r	knee_angle_r	knee_angle_r_beta	ankle_angle_r	subtalar_angle_r	mtp_angle_r	hip_flexion_l	hip_adduction_l	hip_rotation_l	knee_angle_l	knee_angle_l_beta	ankle_angle_l	subtalar_angle_l	mtp_angle_l	lumbar_extension	lumbar_bending	lumbar_rotation	torso_tx	torso_ty	torso_tz	arm_flex_r	arm_add_r	arm_rot_r	shoulder_rx	shoulder_ry	shoulder_rz	elbow_flex_r	pro_sup_r	wrist_flex_r	wrist_dev_r	arm_flex_l	arm_add_l	arm_rot_l	shoulder_lx	shoulder_ly	shoulder_lz	elbow_flex_l	pro_sup_l	wrist_flex_l	wrist_dev_l	neck_extension	neck_bending	neck_rotation	head_tx	head_ty	head_tz
     17.27000000	     12.34701206	     -4.38372178	     -1.62823619	      0.61581260	      1.03830770	     -0.14862474	    -10.93589971	      6.34719988	     -5.37717074	      9.77611896	      0.17062546	     10.61547033	      7.00782861	     -0.20822159	     16.79608071	    -10.14687316	     -3.92132908	     63.09459932	      1.10120850	    -10.08012102	    -19.00442981	      2.74214451	    -13.59940212	      3.18789095	      9.22950048	      0.07723508	      0.01307145	     -0.00077778	      7.02303348	    -18.07908162	     55.42006731	     -0.03597411	     -0.04119650	     -0.00866984	     14.93098121	     15.15801199	     -1.33754396	    -25.55096626	     -2.73260569	    -12.16243395	     54.37985211	     -0.00909856	     -0.04621591	      0.01103959	     16.07436204	      8.13907169	     -4.02446541	    -18.65534904	     15.00455526	      0.14819967	     -3.29163928	      0.01386377	      0.02425347	      0.00011931
     17.28000000	     12.64472716	     -4.46973424	     -1.95634026	      0.61439745	      1.03790962	     -0.14870090	    -11.95199715	      6.24473662	     -5.44683799	      9.92677218	      0.17325486	     10.57836569	      7.02312380	     -0.20444532	     18.21881106	    -10.18745517	     -3.91617720	     62.54143757	      1.09155400	     -9.88271816	    -19.03618653	      2.72528685	    -13.67904846	      3.21361421	      9.29389242	      0.08039168	      0.01290916	     -0.00077313	      7.10896842	    -18.11569808	     55.40555848	     -0.03444685	     -0.04065744	     -0.00788503	     14.93711596	     15.15742531	     -1.33527833	    -25.56494512	     -2.81164876	    -12.17366729	     54.39175682	     -0.01403573	     -0.04563636	      0.01053504	     16.07012519	      8.13978847	     -4.02497568	    -18.64952977	     14.99566687	      0.14536939	     -3.29816874	      0.01518286	      0.02429706	      0.00011083
     17.29000000	     11.59682320	     -4.81271509	     -2.42742020	      0.61478080	      1.03944744	     -0.14906991	    -12.96511198	      6.55393697	     -6.27962305	      6.98264782	      0.12187020	     10.20695755	      8.80018311	     -0.03634734	     18.43390885	    -10.08842819	     -3.90147630	     57.08508661	      0.99632272	     -7.31402344	    -19.01540952	      2.68440817	    -12.93730657	      3.90667353	      9.65162074	      0.07706286	      0.01140968	     -0.00277008	      7.83504742	    -18.82566997	     55.14456138	     -0.03578035	     -0.04019750	     -0.00715343	     15.08234697	     15.19089410	     -1.24233980	    -26.02347943	     -2.69151717	    -11.93366366	     54.60977195	     -0.01881476	     -0.04592728	      0.01051519	     16.59606925	      8.16370418	     -3.95425091	    -18.47439551	     15.06549220	     -0.01046288	     -3.45837884	      0.01270990	      0.02452557	     -0.00178731
     17.30000000	     11.89964075	     -4.86999860	     -2.66411673	      0.61405363	      1.03812909	     -0.14965338	    -13.99840760	      6.48075745	     -6.31819303	      7.16734535	      0.12509377	     10.16386798	      8.82079410	     -0.03258005	     19.87067199	    -10.09114426	     -3.92505531	     56.60734519	      0.98798455	     -7.16795527	    -19.02644353	      2.67200799	    -13.04983676	      3.87533348	      9.75450864	      0.07892246	      0.01226619	     -0.00168425	      7.94120901	    -18.83462803	     55.13250772	     -0.03345475	     -0.03851621	     -0.00748612	     15.10497554	     15.19215158	     -1.23864756	    -26.03610700	     -2.83495887	    -11.92717322	     54.62599371	     -0.02156369	     -0.04639144	      0.01068668	     16.57927570	      8.16301686	     -3.95621370	    -18.46473677	     15.04714616	     -0.01273673	     -3.46011170	      0.01521176	      0.02450485	     -0.00154708
